<?xml version="1.0" standalone="no"?>
<svg width="64" height="64" viewBox="0 0 320 384" version="1.1" xmlns="http://www.w3.org/2000/svg">
  <path d="M315 145c3 -10 5 -19 5 -29c0 -21 -5 -38 -14 -53s-20 -26 -35 -35s-31 -17 -50 -21c-10 -2 -19 -3 -29 -4v-35h-64v35c-9 1 -19 4 -28 6c-20 5 -36 12 -51 23s-26 24 -35 41c-8 16 -13 34 -14 55h69c0 -12 2 -24 7 -33c5 -10 12 -17 21 -23s20 -11 31 -14v120 c-8 2 -18 4 -27 6c-17 4 -30 9 -41 16s-20 15 -27 23s-11 17 -14 26s-4 18 -4 28c0 18 4 34 12 48s19 25 33 34s29 16 46 20c7 2 15 3 22 4v33h64v-33c9 -1 16 -4 24 -6c18 -5 34 -12 48 -22s25 -22 33 -37c7 -13 11 -28 12 -46h-69c-3 21 -12 37 -26 46c-7 4 -13 8 -22 10 v-106c9 -2 16 -4 25 -6c12 -3 22 -6 27 -7c13 -4 23 -9 33 -15c10 -7 18 -14 24 -22s11 -17 14 -27zM128 238v92c-7 -2 -15 -4 -21 -7c-7 -4 -12 -9 -17 -15s-7 -14 -7 -23c0 -13 4 -24 13 -31c8 -7 20 -12 32 -16zM247 89c3 7 4 13 4 20c0 14 -3 24 -10 31s-15 11 -23 14 s-16 5 -26 8v-107c6 1 10 2 14 3c11 3 20 8 27 13s11 11 14 18z" transform="matrix(1,0,0,-1,0,384)"/>
</svg>