<?xml version="1.0" standalone="no"?>
<svg width="64" height="64" viewBox="0 0 384 384" version="1.1" xmlns="http://www.w3.org/2000/svg">
  <path d="M368 368h-352v-352h352v352zM384 384v0v-384h-384v384h384zM128 280v16h192v-16h-192zM128 184v16h192v-16h-192zM128 88v16h192v-16h-192zM64 288c0 11 5 16 16 16s16 -5 16 -16s-5 -16 -16 -16s-16 5 -16 16zM64 192c0 11 5 16 16 16s16 -5 16 -16s-5 -16 -16 -16 s-16 5 -16 16zM64 96c0 11 5 16 16 16s16 -5 16 -16s-5 -16 -16 -16s-16 5 -16 16z" transform="matrix(1,0,0,-1,0,384)"/>
</svg>