<?xml version="1.0" standalone="no"?>
<svg width="64" height="64" viewBox="0 0 384 384" version="1.1" xmlns="http://www.w3.org/2000/svg">
  <path d="M347 192c0 -24 15 -43 37 -56c-4 -13 -10 -26 -16 -38c-25 6 -45 -3 -62 -20s-22 -37 -16 -62c-12 -6 -25 -12 -38 -16c-13 22 -36 37 -60 37s-47 -15 -60 -37c-13 4 -27 10 -39 16c6 25 2 45 -15 62s-37 21 -62 15c-6 12 -12 26 -16 39c22 13 37 36 37 60s-15 43 -37 56 c4 13 9 26 16 38c25 -6 45 3 62 20s21 37 15 62c12 6 26 12 39 16c13 -22 36 -37 60 -37s47 15 60 37c13 -4 27 -10 39 -16c-6 -25 -2 -45 15 -62s37 -26 62 -20c6 -12 12 -25 16 -38c-22 -13 -37 -32 -37 -56zM192 94c54 0 98 44 98 98s-44 98 -98 98s-98 -44 -98 -98 s44 -98 98 -98z" transform="matrix(1,0,0,-1,0,384)"/>
</svg>