<?xml version="1.0" standalone="no"?>
<svg width="64" height="64" viewBox="0 0 512 384" version="1.1" xmlns="http://www.w3.org/2000/svg">
  <path d="M416 288l32 -320h-448l32 320h64v4c0 68 56 124 124 124h8c68 0 124 -56 124 -124v-4h64zM128 292v-4h192v4c0 51 -41 92 -92 92v0h-8c-51 0 -92 -41 -92 -92zM36 0h376l-25 256h-35v-36c10 -6 16 -16 16 -28c0 -18 -14 -32 -32 -32s-32 14 -32 32c0 12 6 22 16 28v36 h-192v-36c10 -6 16 -16 16 -28c0 -18 -14 -32 -32 -32s-32 14 -32 32c0 12 6 22 16 28v36h-35z" transform="matrix(1,0,0,-1,0,384)"/>
</svg>